# xmcd CD database file
#
# Track frame offsets:
#	150
#	17712
#	28208
#	44017
#	64063
#	86421
#	98910
#	115249
#	133913
#	160925
#	177428
#	189626
#
# Disc length: 2700 seconds
#
# Revision: 0
# Processed by: cddbd v1.5.2PL0 Copyright (c) Steve Scherf et al.
# Submitted via: CDex 1.70beta2
#
DISCID=a80a8a0c
DTITLE=Paolo Bonfanti - The Chosen Few
DYEAR=2005
DGENRE=Blues
TTITLE0=Ready, Willin' and Able
TTITLE1=Guitar Trouble
TTITLE2=Absolutely Sweet Marie
TTITLE3=Find My Kinda Woman
TTITLE4=It's a Wild Weekend
TTITLE5=Hard Times for Waiting
TTITLE6=Wait Until Tomorrow
TTITLE7=Take Five
TTITLE8=Full Time Lover
TTITLE9=Authority Song
TTITLE10=High School Confidential
TTITLE11=Misgovernment Blues
EXTD=YEAR: 2005
EXTT0=
EXTT1=
EXTT2=
EXTT3=
EXTT4=
EXTT5=
EXTT6=
EXTT7=
EXTT8=
EXTT9=
EXTT10=
EXTT11=
PLAYORDER=
